HIERARCHY
ROOT Hips
{
	OFFSET 0.00000 0.00000 0.00000
	CHANNELS 6 Xposition Yposition Zposition Zrotation Yrotation Xrotation 
	JOINT LHipJoint
	{
		OFFSET 0 0 0
		CHANNELS 3 Zrotation Yrotation Xrotation
		JOINT LeftUpLeg
		{
			OFFSET 1.67711 -1.75950 0.70433
			CHANNELS 3 Zrotation Yrotation Xrotation
			JOINT LeftLeg
			{
				OFFSET 2.44937 -6.72958 0.00000
				CHANNELS 3 Zrotation Yrotation Xrotation
				JOINT LeftFoot
				{
					OFFSET 2.61292 -7.17894 0.00000
					CHANNELS 3 Zrotation Yrotation Xrotation
					JOINT LeftToeBase
					{
						OFFSET 0.17811 -0.48914 1.82515
						CHANNELS 3 Zrotation Yrotation Xrotation
						End Site
						{
							OFFSET -0.00112 -0.00292 0.95564
						}
					}
				}
			}
		}
	}
	JOINT RHipJoint
	{
		OFFSET 0 0 0
		CHANNELS 3 Zrotation Yrotation Xrotation
		JOINT RightUpLeg
		{
			OFFSET -1.61866 -1.75949 0.70433
			CHANNELS 3 Zrotation Yrotation Xrotation
			JOINT RightLeg
			{
				OFFSET -2.36243 -6.49072 0.00000
				CHANNELS 3 Zrotation Yrotation Xrotation
				JOINT RightFoot
				{
					OFFSET -2.64336 -7.26259 0.00000
					CHANNELS 3 Zrotation Yrotation Xrotation
					JOINT RightToeBase
					{
						OFFSET -0.18169 -0.49935 1.90192
						CHANNELS 3 Zrotation Yrotation Xrotation
						End Site
						{
							OFFSET 0.00039 0.00229 0.99264
						}
					}
				}
			}
		}
	}
	JOINT LowerBack
	{
		OFFSET 0 0 0
		CHANNELS 3 Zrotation Yrotation Xrotation
		JOINT Spine
		{
			OFFSET -0.01926 2.19655 -0.12599
			CHANNELS 3 Zrotation Yrotation Xrotation
			JOINT Spine1
			{
				OFFSET 0.01663 2.20532 -0.00079
				CHANNELS 3 Zrotation Yrotation Xrotation
				JOINT Neck
				{
					OFFSET 0 0 0
					CHANNELS 3 Zrotation Yrotation Xrotation
					JOINT Neck1
					{
						OFFSET 0.10604 1.75174 0.14226
						CHANNELS 3 Zrotation Yrotation Xrotation
						JOINT Head
						{
							OFFSET -0.09898 1.68516 -0.48414
							CHANNELS 3 Zrotation Yrotation Xrotation
							End Site
							{
								OFFSET -0.02896 1.78316 -0.18415
							}
						}
					}
				}
				JOINT LeftShoulder
				{
					OFFSET 0 0 0
					CHANNELS 3 Zrotation Yrotation Xrotation
					JOINT LeftArm
					{
						OFFSET 3.30655 1.16959 -0.30867
						CHANNELS 3 Zrotation Yrotation Xrotation
						JOINT LeftForeArm
						{
							OFFSET 5.35289 -0.00000 -0.00000
							CHANNELS 3 Zrotation Yrotation Xrotation
							JOINT LeftHand
							{
								OFFSET 3.27727 -0.00000 -0.00000
								CHANNELS 3 Zrotation Yrotation Xrotation
								JOINT LeftFingerBase
								{
									OFFSET 0 0 0
									CHANNELS 3 Zrotation Yrotation Xrotation
									JOINT LeftHandIndex1
									{
										OFFSET 0.54443 0.00002 0.00009
										CHANNELS 3 Zrotation Yrotation Xrotation
										End Site
										{
											OFFSET 0.43891 -0.00000 -0.00000
										}
									}
								}
								JOINT LThumb
								{
									OFFSET 0 0 0
									CHANNELS 3 Zrotation Yrotation Xrotation
									End Site
									{
										OFFSET 0.44564 0.00002 0.44570
									}
								}
							}
						}
					}
				}
				JOINT RightShoulder
				{
					OFFSET 0 0 0
					CHANNELS 3 Zrotation Yrotation Xrotation
					JOINT RightArm
					{
						OFFSET -3.27172 0.97864 -0.36131
						CHANNELS 3 Zrotation Yrotation Xrotation
						JOINT RightForeArm
						{
							OFFSET -5.52076 -0.00317 -0.00590
							CHANNELS 3 Zrotation Yrotation Xrotation
							JOINT RightHand
							{
								OFFSET -3.32364 -0.00000 -0.00000
								CHANNELS 3 Zrotation Yrotation Xrotation
								JOINT RightFingerBase
								{
									OFFSET 0 0 0
									CHANNELS 3 Zrotation Yrotation Xrotation
									JOINT RightHandIndex1
									{
										OFFSET -0.73223 -0.00000 -0.00000
										CHANNELS 3 Zrotation Yrotation Xrotation
										End Site
										{
											OFFSET -0.59035 -0.00000 -0.00000
										}
									}
								}
								JOINT RThumb
								{
									OFFSET 0 0 0
									CHANNELS 3 Zrotation Yrotation Xrotation
									End Site
									{
										OFFSET -0.59936 -0.00000 0.59936
									}
								}
							}
						}
					}
				}
			}
		}
	}
}
MOTION
Frames: 12
Frame Time: 0.0188679
0.00 0.00 0.00 0 0 0 0 0 0 -21 0 0 0 0 0 0 0 0 0 0 0 0 0 0 21 0 0 0 0 0 0 0 0 0 0 0 0 0 0 0 0 0 0 0 0 0 0 -16 0 0 21 0 0 11 0 0 0 -8 0 0 0 0 0 0 0 0 0 0 0 0 0 0 0 0 0 0 0 0 8 0 0 0 0 0 0 0 0 0 0 0 0 0 0 0 0 0
0.00 0.00 0.00 0.9430 -4.1559 4.1067 0.0000 0.0000 0.0000 -20.3859 -0.2342 -38.1247 19.6673 19.9973 89.0271 -0.0323 -9.2570 12.6019 0.8667 -5.9362 -16.5995 0.0000 0.0000 0.0000 20.2797 9.2317 -19.8288 -4.6530 -12.9820 39.3013 -1.6556 -1.0029 -24.7094 -0.3213 3.6435 -10.0759 23.6737 -6.1716 -8.9629 -10.0357 -10.9869 5.3515 -26.2029 -4.4693 4.4326 10.9420 20.7297 -1.8266 -8.5535 28.7695 15.0160 -1.5989 13.9073 7.7365 -0.0000 -0.0000 0.0000 -78.2897 22.0303 -5.4441 16.9657 -26.8125 -4.0718 -0.0000 0.0000 -2.6810 9.2150 30.1885 4.6638 -7.1250 0.0000 -0.0000 -24.8220 58.7264 -8.6674 -0.0000 -0.0000 0.0000 101.5669 5.9388 51.5310 -15.2994 24.5616 -3.3494 0.0000 0.0000 2.6776 -19.0757 16.4423 -5.5903 7.1250 -0.0000 -0.0000 5.7987 -12.7041 4.4046
0.00 0.00 0.00 -1.4158 -1.1632 3.1835 0.0000 0.0000 0.0000 -20.2243 -3.7000 -55.0170 15.1514 19.4268 75.6924 -0.4586 -13.7043 -2.2333 0.4761 -4.4250 -12.2754 0.0000 0.0000 0.0000 25.7346 2.6476 -8.1659 -2.7419 -10.2651 29.8394 -1.6927 -1.9204 -25.3413 -0.2232 3.0414 -8.3941 26.6046 -6.4870 -4.7260 -9.2279 -10.7630 6.2419 -26.0263 -4.4158 2.8376 10.0036 19.7943 -5.0048 -9.2827 27.6935 16.7028 -1.4537 13.0936 8.7078 -0.0000 -0.0000 0.0000 -84.9363 17.9074 -9.2924 16.7267 -26.4961 -3.9646 -0.0000 0.0000 -7.1890 13.4347 28.2203 6.4445 -7.1250 0.0000 -0.0000 -19.0662 57.8347 -6.1367 -0.0000 -0.0000 0.0000 101.2143 10.9821 62.0873 -21.3561 32.2416 -6.2388 0.0000 -0.0000 -5.8944 -18.2124 12.9352 -4.2123 7.1250 -0.0000 -0.0000 6.2754 -16.4398 4.2688
0.00 0.00 0.00 -1.3598 -0.2325 2.9170 0.0000 0.0000 0.0000 -19.3913 -7.8211 -52.6990 9.6722 17.2214 58.3870 -0.7533 -16.4607 -0.7844 0.1674 -2.6362 -7.2675 0.0000 0.0000 0.0000 26.1817 -0.4542 -3.5369 -2.0057 -8.8780 25.4144 -1.6378 -2.5766 -25.2211 -0.5287 4.6593 -12.9394 25.4789 -6.4964 -3.9823 -8.8002 -10.5254 6.8850 -24.7563 -4.1321 3.5225 10.3199 19.3161 -4.5844 -9.8953 27.1004 16.3677 -1.8111 12.8214 8.6024 0.0000 0.0000 0.0000 -85.1403 16.2890 -3.4801 17.4726 -27.4766 -4.3031 -0.0000 0.0000 -2.8650 5.9749 28.9966 2.9044 -7.1250 0.0000 -0.0000 -27.1283 56.9708 -8.3779 0.0000 0.0000 0.0000 101.6484 13.4423 61.5900 -21.4596 32.3609 -6.2942 0.0000 -0.0000 -5.0921 -17.5866 15.4676 -4.8318 7.1250 -0.0000 -0.0000 6.7618 -13.8736 4.9786
0.00 0.00 0.00 -1.7309 -1.8607 5.0271 0.0000 0.0000 0.0000 -15.3368 -12.8914 -50.5858 5.2410 13.6501 41.8536 0.0328 -9.2303 -7.0476 0.4835 -4.4589 -12.3715 0.0000 0.0000 0.0000 26.5670 -1.2590 -0.0031 -1.2803 -7.1707 20.2221 -1.3814 -2.3302 -23.1512 -0.5232 4.6354 -12.8716 23.9182 -5.2145 -3.9909 -7.8585 -8.6087 6.3991 -22.8238 -3.0966 4.4663 11.0743 18.5320 -4.6194 -10.5807 26.2230 17.4995 -2.1821 12.3472 9.1117 0.0000 0.0000 0.0000 -84.4876 15.3262 2.4837 19.6534 -30.2225 -5.3558 -0.0000 0.0000 -0.4881 2.2325 29.2276 1.0905 -7.1250 0.0000 -0.0000 -30.9400 56.4053 -9.2715 0.0000 0.0000 0.0000 101.5239 14.9992 59.5436 -21.7921 32.7412 -6.4730 0.0000 -0.0000 -4.4353 -15.4269 10.4459 -2.8642 7.1250 -0.0000 -0.0000 8.2186 -19.2114 5.1091
0.00 0.00 0.00 -4.1385 -13.5492 8.3883 0.0000 0.0000 0.0000 -9.2967 -11.5013 -47.7976 4.3024 12.5523 37.7147 0.1276 -5.1489 -6.8202 0.8991 -6.0432 -16.9098 0.0000 0.0000 0.0000 23.7432 -1.6645 11.1111 -0.3285 -3.6837 10.1883 -0.1997 2.2600 -7.9593 -1.3177 7.2706 -20.5196 19.3952 -0.1092 0.8069 -6.5884 -0.3614 5.8239 -18.8854 1.0881 6.0024 13.2361 16.7932 -7.7909 -13.3747 24.1642 19.2433 -3.3328 11.0452 10.7517 -0.0000 0.0000 0.0000 -77.4229 8.8786 10.5428 20.6539 -31.4221 -5.8685 -0.0000 0.0000 -4.2244 16.9818 25.5898 7.5141 -7.1250 0.0000 -0.0000 -13.8502 56.0385 -3.8021 -0.0000 0.0000 0.0000 99.0335 16.3277 52.6847 -21.4604 32.3618 -6.2946 0.0000 -0.0000 -2.3010 -16.1821 8.6323 -2.4939 7.1250 -0.0000 -0.0000 7.7144 -21.0315 4.4719
0.00 0.00 0.00 -3.8856 -8.1741 12.2429 0.0000 0.0000 0.0000 -10.1970 -15.2423 -51.7248 6.3988 14.8040 46.5619 -0.0827 -9.7239 -5.2850 0.0351 -1.2098 -3.3263 0.0000 0.0000 0.0000 23.7073 0.8959 2.1359 -2.2825 -9.4312 27.1538 -0.0065 -1.1956 1.5449 -1.6418 8.0763 -22.9460 16.2284 -0.1432 0.8276 -7.1332 -0.2547 4.8631 -17.4990 0.7798 4.8317 15.3970 15.5298 -9.5973 -12.3600 21.6337 19.9320 -3.6277 10.0144 11.0927 -0.0000 0.0000 0.0000 -72.3088 7.6318 13.1253 26.3792 -37.5807 -9.1179 -0.0000 0.0000 -6.7750 18.4391 28.3108 8.9854 -7.1250 0.0000 -0.0000 -13.8574 59.0307 -4.8091 -0.0000 0.0000 0.0000 96.8922 10.7189 47.4236 -21.0154 31.8463 -6.0581 0.0000 -0.0000 -2.0674 -20.3997 14.3247 -5.2571 7.1250 -0.0000 -0.0000 4.8158 -14.7775 3.4406
0.00 0.00 0.00 -1.9675 -6.3789 11.3572 0.0000 0.0000 0.0000 -13.9168 -17.6208 -47.9954 7.5440 15.7734 50.9031 0.2134 -9.9912 -10.1294 0.1045 -2.0841 -5.7381 0.0000 0.0000 0.0000 20.7997 1.8683 -5.2738 -5.8141 -14.2458 44.2311 -0.2559 -1.9609 9.0737 -2.5355 9.9022 -28.6605 13.3406 -0.2247 2.3199 -7.7301 -0.1263 5.3173 -16.3676 0.7277 4.4564 16.2687 14.7936 -10.8238 -12.2225 20.3264 20.7720 -3.8767 9.4207 11.5208 -0.0000 0.0000 0.0000 -70.4961 6.9087 15.1927 32.3600 -42.8323 -12.9849 -0.0000 0.0000 -10.4456 18.5637 26.8207 8.6164 -7.1250 0.0000 -0.0000 -12.8588 57.5876 -4.0073 -0.0000 0.0000 0.0000 96.1139 8.8508 43.0974 -18.4965 28.7882 -4.7859 0.0000 -0.0000 -0.1204 -23.6492 18.7241 -8.0019 7.1250 -0.0000 -0.0000 2.9344 -9.6953 2.4015
0.00 0.00 0.00 -0.0155 -4.8649 9.9950 0.0000 0.0000 0.0000 -17.8986 -18.8184 -43.4892 7.9932 16.1142 52.5381 0.5594 -10.8714 -14.3454 0.2295 -3.0833 -8.5108 0.0000 0.0000 0.0000 17.9935 2.1873 -12.7883 -10.4988 -17.6810 61.1430 -0.1743 -3.1726 7.4283 -1.0555 6.5325 -18.3376 10.9965 -0.4503 3.1362 -7.7394 -0.3493 6.0271 -14.8853 0.5632 4.6263 16.0903 14.6480 -11.4524 -12.6735 20.3180 21.6600 -3.9758 9.3104 12.0184 0.0000 0.0000 0.0000 -70.9522 5.6534 15.5923 36.3933 -45.7818 -15.8037 -0.0000 0.0000 -12.3542 19.9224 26.9610 9.3317 -7.1250 0.0000 -0.0000 -11.4888 58.0249 -3.6937 0.0000 0.0000 0.0000 95.2520 8.6239 39.1738 -15.8569 25.3263 -3.5845 0.0000 0.0000 2.6874 -26.2036 21.6450 -10.2887 7.1250 -0.0000 -0.0000 1.6026 -6.1282 1.4229
0.00 0.00 0.00 2.1995 -2.8438 8.6940 0.0000 0.0000 0.0000 -22.2349 -19.4508 -38.1161 7.8084 15.9765 51.8695 0.6908 -11.8261 -15.8758 0.1285 -2.3109 -6.3658 0.0000 0.0000 0.0000 14.4713 1.3794 -22.6133 -16.1575 -19.6423 78.7005 -0.0800 -0.4173 5.2073 -1.7903 8.4149 -23.9815 8.3463 -0.8608 4.0083 -7.4494 -0.8528 6.6241 -12.8721 0.1936 4.5670 15.9680 14.1828 -11.6198 -13.1296 19.8987 22.4393 -4.2139 9.0492 12.3307 -0.0000 -0.0000 0.0000 -72.0620 3.4493 15.9154 37.6215 -46.5958 -16.6900 -0.0000 0.0000 -12.0516 20.1709 25.5584 9.0057 -7.1250 0.0000 -0.0000 -10.5117 56.6676 -3.0296 -0.0000 -0.0000 0.0000 94.8791 8.8424 33.4189 -13.3547 21.8047 -2.5835 0.0000 0.0000 7.8812 -28.5786 23.6402 -12.3218 7.1250 -0.0000 -0.0000 0.3932 -3.4861 0.3685
0.00 0.00 0.00 4.7724 -3.0341 7.8749 0.0000 0.0000 0.0000 -27.0808 -17.2959 -31.9626 7.1513 15.4580 49.4442 0.7388 -12.7961 -16.5986 0.0269 -1.0591 -2.9115 0.0000 0.0000 0.0000 9.9668 2.6402 -39.1501 -22.5100 -19.8483 97.3567 -0.0095 -0.3757 1.7425 -1.9233 8.7044 -24.8749 3.8183 -0.2302 5.4295 -6.7161 -0.0549 6.4380 -9.2819 0.3096 3.6829 16.5862 13.5735 -11.3760 -14.4817 19.4467 23.1752 -4.9437 8.7747 12.7492 0.0000 -0.0000 0.0000 -73.7280 2.6524 19.0846 39.7073 -47.8955 -18.2218 -0.0000 0.0000 -10.6964 20.0969 30.4332 10.4997 -7.1250 0.0000 -0.0000 -13.4245 61.5115 -5.4505 0.0000 -0.0000 0.0000 93.7678 6.4882 27.8906 -13.3353 21.7765 -2.5763 0.0000 0.0000 7.5254 -22.2249 24.8814 -9.7546 7.1250 -0.0000 -0.0000 4.4400 -3.4375 4.1786
0.00 0.00 0.00 6.1067 3.1150 4.5003 0.0000 0.0000 0.0000 -29.0303 -4.7191 -21.1082 12.3581 18.5379 67.1193 -0.7670 -23.2240 -10.2497 0.0201 0.9146 2.5139 0.0000 0.0000 0.0000 11.0801 11.0150 -37.3825 -4.0295 -12.1995 36.4415 -0.0439 -9.5129 7.4136 -2.6041 10.0248 -29.0572 2.3031 1.5125 7.0452 -6.6319 2.0949 3.1026 -8.4218 1.1337 -0.3884 17.2896 10.9597 -11.4024 -9.6800 14.8939 29.4839 -4.2469 7.3632 14.0821 0.0000 -0.0000 0.0000 -70.7959 13.0762 34.5283 37.9368 -46.7989 -16.9196 -0.0000 0.0000 -10.3206 17.0748 26.9472 7.9243 -7.1250 0.0000 -0.0000 -14.4961 57.3915 -4.4622 0.0000 -0.0000 0.0000 94.8781 -11.0450 26.7755 -13.7404 22.3624 -2.7286 0.0000 0.0000 5.2351 -15.0943 22.2433 -5.8296 7.1250 -0.0000 -0.0000 8.6492 -7.2383 7.5797
